HIERARCHY
ROOT Hips
{
	OFFSET -0.001795 -0.223333 0.028219
	CHANNELS 6 Xposition Yposition Zposition Zrotation Yrotation Xrotation 
	JOINT LeftUpLeg
	{
		OFFSET 0.069520 -0.091406 -0.006815
		CHANNELS 3 Zrotation Yrotation Xrotation
		JOINT LeftLeg
		{
			OFFSET 0.034277 -0.375199 -0.004496
			CHANNELS 3 Zrotation Yrotation Xrotation
			JOINT LeftFoot
			{
				OFFSET -0.013596 -0.397961 -0.043693
				CHANNELS 3 Zrotation Yrotation Xrotation
				JOINT LeftToe
				{
					OFFSET 0.026358 -0.055791 0.119288
					CHANNELS 3 Zrotation Yrotation Xrotation
					End Site
					{
						OFFSET 0.000000 0.000000 0.000000
					}
				}
			}
		}
	}
	JOINT RightUpLeg
	{
		OFFSET -0.067670 -0.090522 -0.004320
		CHANNELS 3 Zrotation Yrotation Xrotation
		JOINT RightLeg
		{
			OFFSET -0.038290 -0.382569 -0.008850
			CHANNELS 3 Zrotation Yrotation Xrotation
			JOINT RightFoot
			{
				OFFSET 0.015774 -0.398415 -0.042312
				CHANNELS 3 Zrotation Yrotation Xrotation
				JOINT RightToe
				{
					OFFSET -0.025372 -0.048144 0.123348
					CHANNELS 3 Zrotation Yrotation Xrotation
					End Site
					{
						OFFSET 0.000000 0.000000 0.000000
					}
				}
			}
		}
	}
	JOINT Spine
	{
		OFFSET -0.002533 0.108963 -0.026696
		CHANNELS 3 Zrotation Yrotation Xrotation
		JOINT Spine1
		{
			OFFSET 0.005487 0.135180 0.001092
			CHANNELS 3 Zrotation Yrotation Xrotation
			JOINT Spine2
			{
				OFFSET 0.001457 0.052922 0.025425
				CHANNELS 3 Zrotation Yrotation Xrotation
				JOINT Neck
				{
					OFFSET -0.002778 0.213870 -0.042857
					CHANNELS 3 Zrotation Yrotation Xrotation
					JOINT Head
					{
						OFFSET 0.005152 0.064970 0.051349
						CHANNELS 3 Zrotation Yrotation Xrotation
						End Site
						{
							OFFSET 0.000000 0.000000 0.000000
						}
					}
				}
				JOINT LeftShoulder
				{
					OFFSET 0.078845 0.121749 -0.034090
					CHANNELS 3 Zrotation Yrotation Xrotation
					JOINT LeftArm
					{
						OFFSET 0.090977 0.030469 -0.008868
						CHANNELS 3 Zrotation Yrotation Xrotation
						JOINT LeftForeArm
						{
							OFFSET 0.259612 -0.012772 -0.027456
							CHANNELS 3 Zrotation Yrotation Xrotation
							JOINT LeftHand
							{
								OFFSET 0.249234 0.008986 -0.001171
								CHANNELS 3 Zrotation Yrotation Xrotation
								End Site
								{
									OFFSET 0.000000 0.000000 0.000000
								}
							}
						}
					}
				}
				JOINT RightShoulder
				{
					OFFSET -0.081759 0.118833 -0.038615
					CHANNELS 3 Zrotation Yrotation Xrotation
					JOINT RightArm
					{
						OFFSET -0.096012 0.032551 -0.009143
						CHANNELS 3 Zrotation Yrotation Xrotation
						JOINT RightForeArm
						{
							OFFSET -0.253742 -0.013329 -0.021401
							CHANNELS 3 Zrotation Yrotation Xrotation
							JOINT RightHand
							{
								OFFSET -0.255298 0.007772 -0.005559
								CHANNELS 3 Zrotation Yrotation Xrotation
								End Site
								{
									OFFSET 0.000000 0.000000 0.000000
								}
							}
						}
					}
				}
			}
		}
	}
}
MOTION
Frames: 5
Frame Time: 0.050000
-0.080844 0.959326 -0.272278 -0.945322 -6.697276 0.582874 -1.876757 -2.110377 -21.808727 -4.184035 1.633956 36.099435 2.627219 6.510457 3.763608 0.000000 0.000000 0.000000 5.111236 0.893071 -7.304312 0.450201 1.586700 27.716033 -1.493343 -3.316002 -0.833977 0.000000 0.000000 0.000000 2.950351 -0.239538 3.206681 -0.961715 0.457543 -7.317338 0.340077 7.285625 14.749511 6.201525 -1.371618 -23.847278 0.000000 0.000000 0.000000 -9.306839 13.165290 -6.806243 -53.923477 21.707486 -16.828948 -125.622111 -44.153370 80.773631 0.000000 0.000000 0.000000 12.576963 -10.925944 -5.662010 62.481002 -1.544225 -7.718591 125.138699 54.371117 97.583294 0.000000 0.000000 0.000000 
-0.077293 0.965809 -0.268406 -1.645046 -6.782828 0.131501 -2.672039 -1.790566 -16.776882 -3.335345 0.988925 29.698086 1.551881 4.211213 3.017641 0.000000 0.000000 0.000000 2.761821 1.789136 -14.452227 4.437689 0.826474 40.547833 -0.645017 -4.834365 6.530180 0.000000 0.000000 0.000000 2.912461 -0.274057 3.847276 -0.722638 0.356257 -6.760441 0.225551 5.847355 15.027939 6.761687 -1.789066 -24.645171 0.000000 0.000000 0.000000 -10.386324 14.087335 -7.349167 -55.274021 20.050192 -16.483887 -128.474536 -41.115915 81.097676 0.000000 0.000000 0.000000 10.646959 -11.726401 -5.897029 62.816728 -4.708842 -9.510120 124.193638 49.848566 89.237740 0.000000 0.000000 0.000000 
-0.074135 0.950659 -0.270010 -1.286341 -7.502592 -1.066917 -4.001376 -1.492774 -12.268050 -2.765816 0.702303 25.580955 2.760173 5.541468 -1.286599 0.000000 0.000000 0.000000 0.446969 2.770886 -23.564823 7.325746 0.168238 58.049136 -2.838191 -9.960976 8.462018 0.000000 0.000000 0.000000 2.970532 -0.366017 5.546541 -0.726458 0.338201 -4.756225 -0.987334 3.880822 13.779271 5.986517 -1.578954 -25.016537 0.000000 0.000000 0.000000 -11.136616 13.098514 -6.843940 -56.927910 18.157883 -15.941026 -135.153477 -41.951357 93.366370 0.000000 0.000000 0.000000 9.697364 -11.475939 -5.821303 63.752759 -7.475565 -11.237294 123.730803 48.661107 85.057375 0.000000 0.000000 0.000000 
-0.072083 0.928443 -0.275601 -0.760048 -6.450152 -3.506686 -5.907747 -1.134168 -7.808121 -1.692591 0.229899 25.860003 3.210081 4.458548 -8.498771 0.000000 0.000000 0.000000 -1.599753 3.399265 -31.930862 9.401859 -1.709858 72.612294 -4.852964 -13.622149 7.500270 0.000000 0.000000 0.000000 3.174616 -0.567055 9.163758 -1.433436 0.658933 -5.514649 -2.037006 0.887123 15.312107 5.977899 -1.824716 -26.181990 0.000000 0.000000 0.000000 -13.996365 11.459069 -6.269698 -57.313374 11.340932 -13.049127 -141.145630 -45.666654 110.701819 0.000000 0.000000 0.000000 11.108178 -11.806318 -6.482066 63.819346 -10.602160 -13.368987 123.370360 46.274116 79.849051 0.000000 0.000000 0.000000 
-0.070706 0.910194 -0.281745 -0.353802 -4.971675 -5.408651 -6.487228 -0.860298 -5.472378 -2.528261 0.440098 27.993822 3.212941 2.522233 -12.858246 0.000000 0.000000 0.000000 -2.924290 3.914336 -40.448631 9.785445 -3.324305 83.485749 -6.868522 -17.378464 5.063125 0.000000 0.000000 0.000000 3.071438 -0.735804 12.438229 -0.961987 0.478274 -4.989508 -3.560782 -2.552970 15.146785 4.541992 -1.309594 -27.095021 0.000000 0.000000 0.000000 -15.671846 10.296236 -5.530758 -59.499261 3.896684 -9.991396 -149.276844 -48.557985 131.047829 0.000000 0.000000 0.000000 10.984999 -12.324825 -6.934885 64.569119 -13.984166 -15.681697 124.801211 42.496788 74.311958 0.000000 0.000000 0.000000 
